<?xml version="1.0" standalone="no"?>
<!DOCTYPE svg PUBLIC "-//W3C//DTD SVG 20010904//EN"
 "http://www.w3.org/TR/2001/REC-SVG-20010904/DTD/svg10.dtd">
<svg version="1.0" xmlns="http://www.w3.org/2000/svg"
 width="1024.000000pt" height="1024.000000pt" viewBox="0 0 1024.000000 1024.000000"
 preserveAspectRatio="xMidYMid meet">
<metadata>
Created by potrace 1.11, written by Peter Selinger 2001-2013
</metadata>
<g transform="translate(0.000000,1024.000000) scale(0.100000,-0.100000)"
fill="#000000" stroke="none">
<path d="M5715 9883 c-131 -24 -204 -39 -280 -60 -49 -13 -97 -26 -105 -27 -8
-2 -87 -28 -175 -56 -415 -136 -925 -368 -1335 -606 -166 -96 -197 -115 -340
-210 -356 -235 -628 -453 -884 -710 -72 -72 -113 -115 -230 -244 -115 -126
-391 -477 -546 -695 -73 -102 -330 -487 -374 -561 -16 -27 -72 -118 -123 -203
-51 -85 -93 -156 -93 -157 0 -1 -24 -44 -53 -96 -182 -316 -351 -669 -419
-873 -22 -67 -30 -111 -32 -171 -1 -72 2 -85 27 -122 33 -51 66 -68 231 -122
72 -24 166 -60 210 -82 45 -21 158 -63 253 -94 203 -64 373 -133 536 -215 116
-58 293 -164 342 -204 13 -11 46 -36 72 -55 95 -70 234 -191 355 -310 224
-220 356 -329 633 -525 220 -156 759 -495 785 -495 6 0 10 -4 10 -9 0 -5 8
-11 18 -14 9 -4 35 -17 57 -30 22 -13 65 -36 95 -52 30 -16 62 -34 70 -41 29
-24 486 -251 595 -296 149 -61 154 -63 285 -102 127 -37 253 -83 333 -120 29
-13 75 -34 102 -46 84 -37 543 -268 585 -295 22 -14 42 -25 45 -25 7 0 451
-244 860 -472 534 -298 876 -468 1292 -644 84 -35 156 -64 159 -64 5 0 47 -29
214 -147 58 -41 190 -120 243 -145 242 -117 333 -39 322 277 -2 66 -6 132 -9
148 -3 15 -8 37 -10 50 -12 62 -41 171 -80 304 -25 81 -59 202 -77 268 -17 66
-61 226 -96 355 -36 129 -67 243 -69 252 -2 10 -6 26 -8 35 -13 54 -28 121
-32 138 -5 24 -20 66 -45 122 -11 24 -19 45 -19 48 0 7 -121 249 -180 360
-132 248 -230 453 -251 526 -7 24 -16 49 -21 55 -5 6 -11 47 -14 90 -12 160
-95 340 -404 879 -137 240 -284 525 -315 610 -10 28 -22 55 -25 60 -13 18 -87
257 -120 385 -42 164 -58 200 -126 270 -31 33 -65 73 -76 91 -24 40 -77 200
-118 359 -46 175 -153 465 -245 665 -13 28 -42 95 -65 150 -23 55 -47 114 -55
130 -31 68 -131 319 -177 445 -93 251 -278 812 -271 823 4 6 1 7 -7 2 -10 -6
-12 -4 -7 8 3 8 -1 21 -9 27 -8 7 -14 20 -14 30 0 10 -7 34 -15 54 -9 20 -13
42 -9 48 5 7 2 8 -6 3 -10 -6 -12 -4 -7 9 5 11 3 15 -5 10 -7 -5 -9 0 -6 14 4
14 2 20 -4 16 -7 -5 -9 3 -4 22 4 19 3 24 -3 15 -7 -11 -10 -8 -16 10 -8 31
-22 62 -52 121 -13 27 -21 54 -17 60 4 7 4 10 -1 6 -4 -4 -23 16 -43 45 -19
29 -48 64 -63 78 -22 19 -40 59 -74 164 -25 76 -52 152 -59 169 -51 114 -176
418 -176 426 0 6 -4 18 -9 28 -5 9 -15 39 -22 65 -7 28 -21 54 -33 62 -19 13
-118 17 -171 8z"/>
</g>
</svg>
